<?xml version="1.0" standalone="no"?>
<!DOCTYPE svg PUBLIC "-//W3C//DTD SVG 20010904//EN"
 "http://www.w3.org/TR/2001/REC-SVG-20010904/DTD/svg10.dtd">
<svg version="1.0" xmlns="http://www.w3.org/2000/svg"
 width="16.000000pt" height="16.000000pt" viewBox="0 0 16.000000 16.000000"
 preserveAspectRatio="xMidYMid meet">
<metadata>
Created by potrace 1.11, written by Peter Selinger 2001-2013
</metadata>
<g transform="translate(0.000000,16.000000) scale(0.002286,-0.002286)"
fill="#000000" stroke="none">
<path d="M1910 6450 c-210 -36 -415 -206 -490 -408 -62 -164 -55 -357 18 -512
35 -76 64 -114 148 -196 145 -141 335 -200 549 -171 254 34 481 251 535 510
13 65 15 166 5 242 -31 224 -217 439 -445 515 -71 24 -238 34 -320 20z"/>
<path d="M4900 6457 c-3 -3 -25 -7 -50 -10 -157 -18 -345 -147 -439 -301 -134
-223 -123 -517 27 -718 155 -208 383 -301 643 -264 217 31 421 200 503 418 57
151 48 362 -22 503 -92 187 -277 333 -457 361 -51 9 -200 16 -205 11z"/>
<path d="M3418 5805 c-2 -1 -28 -5 -58 -8 -252 -27 -517 -193 -673 -422 -38
-56 -61 -98 -100 -185 -35 -79 -58 -196 -62 -315 -11 -312 85 -550 307 -761
123 -116 241 -184 406 -231 73 -21 112 -26 242 -29 144 -3 163 -1 264 25 375
98 665 413 722 786 15 100 13 291 -5 370 -89 391 -406 694 -796 760 -40 7
-241 15 -247 10z"/>
<path d="M5497 5090 c-142 -68 -289 -123 -357 -135 -19 -3 -48 -8 -63 -11 -80
-17 -268 -1 -372 31 -74 22 -78 21 -70 -22 7 -47 8 -180 1 -253 -16 -159 -75
-326 -164 -468 -37 -59 -39 -58 58 -66 188 -17 365 -102 516 -248 l71 -69 216
1 c240 2 301 11 404 62 80 39 143 100 179 174 28 58 29 63 29 224 0 156 -9
324 -20 380 -3 14 -9 50 -15 80 -18 107 -36 165 -75 238 -41 79 -83 117 -148
137 l-45 13 -145 -68z"/>
<path d="M1285 5136 c-96 -42 -172 -196 -205 -416 -20 -136 -24 -193 -24 -385
-1 -164 1 -194 17 -222 10 -18 15 -33 12 -33 -4 0 8 -19 24 -42 51 -71 126
-122 231 -159 59 -21 88 -23 303 -27 l237 -4 74 70 c117 111 241 185 362 217
30 8 58 16 62 19 4 3 42 8 83 11 40 4 80 8 87 10 8 3 0 25 -26 67 -86 142
-137 289 -157 452 -8 64 -8 201 0 260 7 46 6 46 -17 37 -24 -11 -103 -33 -128
-36 -140 -20 -198 -22 -289 -9 -31 4 -59 7 -63 6 -21 -5 -243 79 -356 133
-137 67 -172 75 -227 51z"/>
<path d="M2445 4000 c-226 -34 -423 -190 -545 -430 -12 -25 -28 -56 -35 -70
-24 -47 -81 -231 -101 -325 -49 -231 -73 -582 -51 -750 17 -129 71 -245 156
-333 92 -96 167 -139 309 -178 l84 -23 1212 -1 c1375 0 1320 -3 1493 76 142
65 268 227 309 399 37 155 16 571 -42 815 -9 36 -17 73 -19 84 -12 57 -54 173
-91 254 -143 310 -354 470 -645 489 -88 6 -91 5 -254 -102 -169 -111 -264
-160 -360 -186 -16 -4 -55 -15 -85 -24 -60 -17 -74 -20 -170 -31 -253 -29
-544 47 -779 203 -101 68 -110 73 -176 113 -53 32 -101 36 -210 20z"/>
<path d="M1442 1098 c-142 -53 -212 -224 -176 -428 10 -57 65 -151 107 -181
106 -77 253 -76 335 1 l22 21 0 -25 c0 -13 3 -31 6 -40 8 -22 53 -20 61 1 9
23 9 260 0 295 -10 39 -42 45 -201 39 -28 -1 -40 -25 -26 -51 8 -16 24 -20 83
-22 l72 -3 1 -40 c1 -39 -17 -87 -40 -111 -42 -42 -148 -60 -207 -36 -92 37
-142 141 -135 281 6 126 58 209 147 235 89 26 159 3 209 -69 34 -50 60 -57 84
-24 17 25 10 43 -39 97 -68 76 -195 101 -303 60z"/>
<path d="M2761 1106 c-8 -9 -11 -105 -9 -331 3 -290 5 -319 21 -329 12 -8 22
-8 35 0 15 10 17 31 19 159 3 160 10 187 64 227 55 41 140 31 161 -19 6 -16
11 -96 12 -190 2 -175 6 -190 50 -179 30 7 28 -5 28 214 -1 127 -4 159 -19
189 -24 49 -61 74 -116 80 -56 7 -106 -10 -146 -47 -17 -17 -32 -30 -33 -30
-2 0 -2 54 0 121 3 125 -3 149 -38 149 -10 0 -23 -6 -29 -14z"/>
<path d="M4520 1105 c-105 -33 -154 -146 -106 -246 23 -49 68 -75 171 -99 161
-39 206 -72 199 -147 -5 -67 -54 -104 -145 -109 -81 -4 -135 25 -167 89 -26
54 -41 64 -71 47 -27 -14 -27 -45 0 -95 43 -79 118 -115 236 -112 99 3 162 31
201 90 22 34 27 52 27 106 0 54 -5 72 -25 100 -31 41 -96 75 -175 90 -142 28
-185 56 -187 120 -2 61 43 100 125 108 71 7 127 -21 154 -74 20 -42 60 -56 83
-28 27 33 -41 130 -109 157 -41 16 -161 18 -211 3z"/>
<path d="M4950 1105 c-10 -12 -7 -37 19 -133 18 -64 34 -124 36 -132 49 -202
100 -368 117 -382 24 -21 48 -23 71 -6 14 10 56 137 72 218 2 8 13 51 24 96
26 97 28 109 45 199 l12 70 8 -40 c4 -22 10 -51 12 -65 3 -14 16 -70 30 -125
14 -55 27 -109 29 -120 24 -112 58 -222 72 -233 24 -17 57 -15 75 6 8 9 32 78
53 152 21 74 49 173 62 220 13 47 26 94 29 105 2 11 13 49 23 83 22 72 19 90
-16 98 -38 10 -50 -9 -78 -128 -2 -10 -18 -71 -35 -135 -18 -65 -34 -127 -36
-138 -35 -157 -42 -189 -44 -180 -1 6 -3 19 -4 30 -2 11 -6 35 -10 53 -5 19
-10 43 -12 55 -20 114 -106 423 -121 435 -24 17 -57 15 -75 -5 -18 -22 -135
-476 -137 -535 -2 -37 -19 -16 -25 31 -3 27 -22 109 -41 183 -86 337 -87 337
-126 338 -9 0 -22 -7 -29 -15z"/>
<path d="M2478 1039 c-14 -8 -18 -23 -18 -69 l0 -60 -39 0 c-42 0 -65 -18 -55
-43 6 -16 33 -29 50 -26 42 7 42 6 46 -177 l3 -176 35 -29 c59 -49 171 -35
178 23 4 31 -26 45 -59 28 -29 -16 -66 -5 -75 22 -8 27 -10 296 -1 304 3 3 30
6 61 7 63 3 87 18 70 45 -8 12 -28 18 -73 20 -39 2 -61 7 -62 15 0 7 -1 34 -2
60 -3 59 -22 78 -59 56z"/>
<path d="M2040 924 c-58 -24 -82 -40 -100 -69 -24 -39 -24 -39 -4 -59 25 -25
51 -19 73 18 30 48 80 61 157 42 23 -6 41 -43 43 -87 0 -24 -3 -26 -49 -28
-174 -6 -260 -63 -260 -173 0 -53 24 -99 62 -119 58 -31 173 -16 221 29 l27
26 0 -26 c0 -29 26 -44 58 -34 17 6 18 20 14 189 -2 100 -8 197 -13 214 -16
52 -60 76 -143 79 -39 2 -78 1 -86 -2z m170 -285 c0 -100 -119 -177 -198 -129
-34 21 -44 57 -26 98 19 45 69 65 177 71 l47 2 0 -42z"/>
<path d="M3377 915 c-48 -17 -82 -48 -110 -100 -31 -57 -31 -212 0 -270 41
-78 101 -113 193 -113 66 1 103 15 146 58 46 44 52 69 24 92 -23 19 -23 19
-70 -32 -25 -27 -50 -51 -56 -51 -74 -9 -123 7 -156 52 -20 27 -40 97 -32 111
3 4 75 7 161 7 193 -1 191 -3 167 113 -9 47 -62 108 -110 129 -53 22 -103 24
-157 4z m147 -72 c27 -19 60 -88 51 -104 -4 -5 -62 -9 -131 -9 -105 0 -124 2
-124 15 0 19 27 74 47 93 34 35 113 37 157 5z"/>
<path d="M3915 916 c-16 -7 -39 -23 -50 -36 l-20 -22 -5 23 c-8 31 -35 47 -57
33 -16 -10 -18 -33 -18 -234 0 -201 2 -224 18 -234 12 -8 22 -8 35 0 14 10 18
32 22 160 4 132 8 153 28 186 27 43 40 49 111 57 44 5 55 10 62 28 17 47 -56
70 -126 39z"/>
</g>
</svg>
